<svg xmlns="http://www.w3.org/2000/svg" fill="none" viewBox="0 0 398 80">
  <path fill="#3EB5AF" d="M15.5 14.3c-6-6-10.5-2.5-10.5 0l.1 8.5c4.9 9 15.9 9.5 21.9 2L15.5 14.3Z"/>
  <path fill="#F8B133" d="M49.5 10.8c-7.8 1-12.8 4.8-22.5 14l16 15c16.5-15 31-15.5 38 3v-11c0-6-9-19-22-21a29 29 0 0 0-9.5 0Z"/>
  <path fill="#2C92D0" d="m43 39.8-16-15c-6 7.5-17 7-21.9-2l.3 15.8C13.5 53.8 27 55.8 43 39.8Z"/>
  <path fill="#E84E1C" d="m43 39.8 16 15c7.5-6 14.5-9 22 2v-14c-7-18.5-21.5-18-38-3Z"/>
  <path fill="#282E6A" d="M38 68.8c8.5-1.9 12.3-5.7 21-14l-16-15c-16 16-29.5 14-37.6-1.2l.1 9.7c0 8 13.1 19.1 20 20.5 5 1 8 1 12.5 0Z"/>
  <path fill="#BC1722" d="M71.5 66.3c4 3.5 9 3.5 9.5 0v-9.5c-7.5-11-14.5-8-22-2l12.5 11.5Z"/>
  <path stroke="#fff" stroke-width="2" d="M27 24.8 15.5 14.3c-6-6-10.5-2.5-10.5 0l.1 8.5m21.9 2c9.7-9.2 14.7-13 22.5-14 4.2-.5 6-.5 9.5 0 13 2 22 15 22 21v11m-54-18 16 15m-16-15c-6 7.5-17 7-21.9-2m53.9 32 12.5 11.5c4 3.5 9 3.5 9.5 0v-9.5m-22-2c-8.7 8.3-12.5 12.1-21 14-4.5 1-7.5 1-12.5 0-6.9-1.4-20-12.5-20-20.5l-.1-9.7M59 54.8l-16-15m16 15c7.5-6 14.5-9 22 2m-38-17c16.5-15 31-15.5 38 3m-38-3c-16 16-29.5 14-37.6-1.2M81 42.8v14m-75.9-34 .3 15.8"/>
  <path fill="#000" d="M110 38H98.2l-2 5.5h-6.1l10.5-29.4h6.9L118 43.5h-6.2l-2-5.6Zm-1.6-4.8L104 21l-4 12.2h8.5Zm12.1-1.3c0-2.4.5-4.5 1.5-6.3 1-1.9 2.3-3.3 4-4.2 1.8-1 3.8-1.5 6-1.5 3 0 5.3.7 7.2 2.1 1.9 1.5 3.2 3.5 3.8 6h-6.3c-.4-1-1-1.7-1.8-2.3-.8-.6-1.7-.8-3-.8-1.6 0-3 .6-3.9 1.8a8 8 0 0 0-1.5 5.2c0 2.2.5 3.9 1.5 5.1 1 1.2 2.3 1.8 4 1.8 2.4 0 4-1 4.7-3.2h6.3a11 11 0 0 1-3.8 6A11.3 11.3 0 0 1 132 44a12 12 0 0 1-6-1.5c-1.7-1-3-2.4-4-4.2a13 13 0 0 1-1.5-6.3Zm33.6-6.8v11.2c0 .8.2 1.4.6 1.7.4.4 1 .5 2 .5h2.7v5h-3.7c-5 0-7.5-2.4-7.5-7.2V25h-2.7v-4.9h2.7v-5.7h6v5.7h5.2V25H154Zm12.5-7.6c-1 0-2-.4-2.6-1-.7-.7-1-1.5-1-2.5s.3-1.8 1-2.4c.7-.7 1.5-1 2.6-1 1 0 1.9.3 2.5 1 .7.6 1 1.4 1 2.4s-.3 1.8-1 2.5c-.6.6-1.5 1-2.5 1Zm2.9 2.7v23.3h-6V20.2h6ZM185.6 44c-2.2 0-4.3-.5-6-1.5a11 11 0 0 1-4.3-4.2c-1-1.9-1.5-4-1.5-6.3 0-2.4.5-4.5 1.6-6.3a11 11 0 0 1 4.3-4.2 13 13 0 0 1 12.2 0 10 10 0 0 1 4.2 4.2c1.1 1.8 1.6 3.9 1.6 6.3a12 12 0 0 1-1.6 6.3 12.1 12.1 0 0 1-10.4 5.7Zm0-5.1c1 0 2-.3 3-.8s1.7-1.3 2.3-2.4c.5-1 .8-2.3.8-3.7 0-2.2-.6-4-1.8-5.1a5.6 5.6 0 0 0-4.2-1.8c-1.7 0-3.1.6-4.3 1.8a7.7 7.7 0 0 0-1.6 5c0 2.3.5 4 1.6 5.2a5.6 5.6 0 0 0 4.2 1.8Zm29.4-19a9 9 0 0 1 6.7 2.6 10 10 0 0 1 2.5 7.4v13.6h-5.8V30.6a6 6 0 0 0-1.4-4.2 5 5 0 0 0-3.8-1.5 5 5 0 0 0-3.9 1.5 6 6 0 0 0-1.4 4.2v12.9h-5.8V20.2h5.8v3a8 8 0 0 1 3-2.4c1.3-.6 2.6-.9 4-.9Zm32.8 24.4c-2 0-4-.3-5.6-1a9.5 9.5 0 0 1-3.8-3.1 8 8 0 0 1-1.5-4.6h4.4c.2 1.5.8 2.7 1.8 3.8 1 1 2.6 1.5 4.7 1.5 2 0 3.5-.5 4.6-1.5 1.1-1 1.7-2.2 1.7-3.8 0-1.2-.3-2.1-1-2.9a6.3 6.3 0 0 0-2.5-1.7l-4-1.3c-2-.5-3.7-1-5-1.6a8.3 8.3 0 0 1-3.2-2.5 7.7 7.7 0 0 1-1.3-4.7 8 8 0 0 1 5-7.6 13 13 0 0 1 5.4-1c3 0 5.4.7 7.2 2.1 2 1.5 3 3.5 3.2 5.9h-4.5a4.8 4.8 0 0 0-1.9-3.2 6.6 6.6 0 0 0-4.4-1.4c-1.7 0-3 .5-4.2 1.4-1 .9-1.6 2-1.6 3.7 0 1.1.3 2 1 2.8.6.7 1.4 1.2 2.3 1.6l4 1.3a35 35 0 0 1 5 1.7 7.4 7.4 0 0 1 4.6 7.2c0 1.6-.4 3-1.2 4.4a9 9 0 0 1-3.6 3.3c-1.6.8-3.5 1.2-5.6 1.2Zm21.4-21.6v14.6c0 1.2.3 2 .8 2.5s1.4.7 2.7.7h3V44H272c-2.3 0-4-.5-5.1-1.6-1.2-1-1.7-2.8-1.7-5.1V22.6H262v-3.4h3.2V13h4v6.2h6.5v3.4h-6.5Zm10 8.9c0-2.5.4-4.7 1.4-6.6a11.1 11.1 0 0 1 10.2-6c2.2 0 4 .4 5.6 1.3a10 10 0 0 1 3.6 3.5v-4.5h4.1V44H300v-4.6c-.8 1.5-2 2.6-3.7 3.6a9.8 9.8 0 0 1-5.5 1.4 11.2 11.2 0 0 1-10.2-6.2c-1-2-1.5-4.1-1.5-6.6Zm20.8 0a10 10 0 0 0-1.1-4.8 7.7 7.7 0 0 0-3-3.2 8 8 0 0 0-4.3-1.1 10 10 0 0 0-4.2 1 7.8 7.8 0 0 0-3 3.2 10 10 0 0 0-1.1 4.9c0 1.9.4 3.5 1.1 5a8.2 8.2 0 0 0 3 3.1 8.8 8.8 0 0 0 8.4.1 8 8 0 0 0 3-3.3c.8-1.4 1.2-3 1.2-4.9Zm16-8.9v14.6c0 1.2.3 2 .8 2.5s1.4.7 2.7.7h3V44h-3.7c-2.3 0-4-.5-5.1-1.6-1.2-1-1.7-2.8-1.7-5.1V22.6h-3.2v-3.4h3.2V13h4v6.2h6.5v3.4H316Zm13.6-7.4c-.8 0-1.5-.2-2-.8-.6-.5-.8-1.2-.8-2 0-.7.2-1.4.8-2 .5-.5 1.2-.7 2-.7.7 0 1.3.2 1.9.8.5.5.8 1.2.8 2 0 .7-.3 1.4-.8 2-.6.5-1.2.7-2 .7Zm2 4V44h-4.2V19.3h4.1Zm17.7 25.1c-2.3 0-4.4-.5-6.3-1.6-1.9-1-3.4-2.5-4.4-4.4a14 14 0 0 1-1.6-6.8c0-2.5.5-4.7 1.6-6.6 1.1-2 2.6-3.5 4.5-4.5a13.5 13.5 0 0 1 12.7 0 11 11 0 0 1 4.5 4.4 14.7 14.7 0 0 1-.1 13.5 11.2 11.2 0 0 1-4.5 4.4c-2 1-4 1.6-6.4 1.6Zm0-3.6c1.4 0 2.8-.3 4.1-1a7.7 7.7 0 0 0 3.1-3.1 10 10 0 0 0 1.2-5c0-2-.4-3.7-1.1-5.1a7.5 7.5 0 0 0-3.1-3 7.3 7.3 0 0 0-4-1.1c-1.6 0-3 .3-4.2 1a7.3 7.3 0 0 0-3 3c-.8 1.5-1.1 3.1-1.1 5.1 0 2 .3 3.7 1 5.1a7.6 7.6 0 0 0 3 3.1c1.3.7 2.6 1 4 1Zm30-22c3 0 5.4 1 7.3 2.8 1.9 1.8 2.8 4.4 2.8 7.9V44h-4V30a8 8 0 0 0-1.9-5.6c-1.2-1.3-3-2-5-2-2.2 0-4 .7-5.2 2-1.3 1.4-1.9 3.4-1.9 6V44h-4.1V19.3h4.1V23a8.2 8.2 0 0 1 3.3-3c1.4-.7 3-1 4.6-1Zm-289.7 44c0-1 .3-2 .7-2.8a5 5 0 0 1 4.6-2.6c1.1 0 2.1.3 3 .8.8.6 1.4 1.4 1.8 2.4h-1.6c-.3-.7-.7-1.1-1.3-1.5a4 4 0 0 0-2-.5c-.7 0-1.3.2-1.9.5a4 4 0 0 0-1.9 3.7c0 .8.2 1.5.5 2.2.4.6.8 1 1.4 1.4a4.2 4.2 0 0 0 4 0c.5-.3.9-.8 1.2-1.4h1.6c-.4 1-1 1.7-1.9 2.3-.8.5-1.8.8-3 .8-1 0-1.8-.2-2.6-.7a5 5 0 0 1-1.9-1.9 6 6 0 0 1-.7-2.7Zm15.7 5.3c-.7 0-1.4-.1-2-.5-.7-.3-1.2-.8-1.5-1.5a4 4 0 0 1-.6-2.2c0-.9.2-1.6.6-2.2.3-.7.8-1.2 1.5-1.5.6-.4 1.3-.6 2-.6.9 0 1.6.2 2.2.6a4 4 0 0 1 1.5 1.4c.4.7.5 1.4.5 2.3a3.9 3.9 0 0 1-2 3.7c-.7.4-1.4.5-2.2.5Zm0-1.2c.5 0 1 0 1.4-.3.4-.2.8-.6 1-1 .3-.5.4-1 .4-1.7s0-1.2-.3-1.7-.6-.8-1-1a2.8 2.8 0 0 0-2.7 0c-.5.2-.8.5-1.1 1-.2.5-.4 1-.4 1.7 0 .6.1 1.2.4 1.7.2.4.6.8 1 1 .4.2.8.3 1.3.3Zm10-7.3c1 0 1.9.3 2.5 1 .6.5.9 1.4.9 2.6V68h-1.3v-4.6a3 3 0 0 0-.7-2c-.4-.4-1-.6-1.6-.6-.8 0-1.3.2-1.8.7-.4.4-.6 1-.6 2V68h-1.4v-8.2h1.4V61c.3-.5.6-.8 1.1-1 .5-.3 1-.4 1.5-.4Zm9.6 0c1 0 1.8.3 2.5 1 .6.5.9 1.4.9 2.6V68h-1.4v-4.6a3 3 0 0 0-.6-2c-.4-.4-1-.6-1.6-.6-.8 0-1.3.2-1.8.7-.4.4-.6 1-.6 2V68h-1.4v-8.2h1.4V61c.3-.5.6-.8 1-1 .6-.3 1-.4 1.6-.4Zm13.1 4v.8h-6.6c0 .8.3 1.4.8 2a3 3 0 0 0 1.9.6c.6 0 1-.2 1.5-.4.4-.3.6-.7.8-1.1h1.5c-.3.8-.7 1.4-1.4 1.9a4 4 0 0 1-2.4.7 3.7 3.7 0 0 1-3.5-2 4 4 0 0 1-.6-2.2c0-.9.2-1.6.5-2.3a4.3 4.3 0 0 1 3.6-2c.8 0 1.5.2 2 .6.7.3 1.1.8 1.4 1.4.4.6.5 1.2.5 2Zm-1.4-.3c0-.5-.1-1-.3-1.3-.3-.4-.6-.7-1-.9-.4-.2-.8-.3-1.3-.3-.7 0-1.3.2-1.7.7-.5.4-.8 1-.9 1.8h5.2Zm2.7.6c0-.9.2-1.6.5-2.2.4-.7.8-1.2 1.4-1.5.6-.4 1.3-.6 2.1-.6 1 0 1.9.3 2.5.8a3 3 0 0 1 1.3 2h-1.5c0-.5-.4-.9-.8-1.2-.4-.3-.9-.4-1.5-.4-.8 0-1.4.3-1.9.8-.4.5-.7 1.3-.7 2.3 0 1 .3 1.7.7 2.3.5.5 1.1.8 2 .8.5 0 1-.2 1.4-.4.4-.3.7-.7.8-1.2h1.5c-.2.8-.6 1.5-1.3 2a4 4 0 0 1-2.5.7c-.8 0-1.5-.1-2-.5-.7-.3-1.1-.8-1.5-1.5a5 5 0 0 1-.5-2.2Zm11.3-3v4.9c0 .4 0 .6.3.8.1.2.4.2.8.2h1V68h-1.2c-.7 0-1.3-.2-1.7-.5-.4-.4-.6-1-.6-1.8V61h-1v-1.1h1v-2h1.4v2h2.1V61h-2.1Zm4.5-2.5c-.3 0-.5 0-.7-.2a.9.9 0 0 1-.2-.7c0-.2 0-.5.2-.6.2-.2.4-.3.7-.3.3 0 .5 0 .6.3.2.1.3.4.3.6 0 .3 0 .5-.3.7-.1.2-.3.2-.6.2Zm.7 1.4V68h-1.4v-8.2h1.4Zm6.3-.2c1 0 1.8.3 2.4 1 .6.5 1 1.4 1 2.6V68H164v-4.6a3 3 0 0 0-.6-2c-.4-.4-1-.6-1.7-.6s-1.3.2-1.7.7c-.4.4-.6 1-.6 2V68H158v-8.2h1.4V61a2 2 0 0 1 1-1 3 3 0 0 1 1.6-.4Zm9 0c.7 0 1.3.2 1.8.5.6.3 1 .7 1.2 1.2v-1.5h1.4v8.4a4 4 0 0 1-.5 2c-.3.6-.7 1-1.3 1.4a4.8 4.8 0 0 1-4.8-.3 3 3 0 0 1-1.3-2.1h1.4c.1.5.4.9.9 1.2a2.9 2.9 0 0 0 3.5-.2c.5-.5.7-1.2.7-2v-1.7c-.2.4-.6.8-1.2 1.2-.5.3-1.1.4-1.8.4-.8 0-1.4-.1-2-.5a5 5 0 0 1-1.4-1.5c-.4-.7-.5-1.4-.5-2.2 0-.9.1-1.6.5-2.2a3.7 3.7 0 0 1 3.4-2Zm3 4.3c0-.6 0-1.2-.3-1.6-.3-.5-.6-.9-1-1-.5-.3-1-.5-1.5-.5s-1 .2-1.3.4a2 2 0 0 0-1 1 3 3 0 0 0-.4 1.7c0 .6.1 1.1.3 1.6a2.8 2.8 0 0 0 2.4 1.4c.6 0 1 0 1.4-.3.5-.3.8-.6 1-1 .3-.6.4-1.1.4-1.7Zm11.3 4.2c-.8 0-1.5-.1-2-.5-.7-.3-1.2-.8-1.6-1.5a5 5 0 0 1-.5-2.2c0-.9.2-1.6.6-2.2.3-.7.8-1.2 1.5-1.5a4 4 0 0 1 4.2 0 4 4 0 0 1 1.5 1.4c.3.7.5 1.4.5 2.3a5 5 0 0 1-.5 2.2 4.4 4.4 0 0 1-3.6 2Zm0-1.2c.5 0 1 0 1.4-.3.4-.2.8-.6 1-1 .3-.5.4-1 .4-1.7s-.1-1.2-.4-1.7a2 2 0 0 0-1-1c-.4-.3-.9-.4-1.3-.4-.5 0-1 .1-1.4.4a2 2 0 0 0-1 1 3 3 0 0 0-.4 1.7c0 .6.1 1.2.4 1.7.2.4.6.8 1 1 .4.2.8.3 1.3.3Zm13.3-7.1V68h-1.4v-1.2c-.2.4-.6.7-1 1a4.1 4.1 0 0 1-3.3-.1 3 3 0 0 1-1.2-1.2 4 4 0 0 1-.5-2v-4.7h1.4v4.6c0 .8.2 1.4.6 1.9.4.4 1 .6 1.7.6s1.3-.2 1.7-.6a3 3 0 0 0 .6-2v-4.5h1.4Zm3.7 1.3a2 2 0 0 1 1-1c.4-.3 1-.5 1.6-.5V61h-.3c-1.6 0-2.3.9-2.3 2.5V68H201v-8.2h1.4V61Zm7.7 1.7c0-1 .2-2 .7-2.8a5 5 0 0 1 4.5-2.6c1.2 0 2.2.3 3 .8a5 5 0 0 1 1.9 2.4h-1.7c-.3-.7-.7-1.1-1.2-1.5a4.2 4.2 0 0 0-4 0c-.5.4-1 .8-1.3 1.5-.3.6-.5 1.3-.5 2.2 0 .8.2 1.5.5 2.2a3.8 3.8 0 0 0 3.3 2c.8 0 1.4-.3 2-.6.5-.3 1-.8 1.2-1.4h1.7c-.4 1-1 1.7-1.9 2.3-.8.5-1.8.8-3 .8-1 0-1.8-.2-2.6-.7a5 5 0 0 1-2-1.9 6 6 0 0 1-.6-2.7Zm15.7 5.3c-.8 0-1.5-.1-2.1-.5-.6-.3-1.1-.8-1.5-1.5a5 5 0 0 1 0-4.4c.4-.7.9-1.2 1.5-1.5a4.3 4.3 0 0 1 4.2 0 3 3 0 0 1 1.5 1.4c.4.7.6 1.4.6 2.3a4 4 0 0 1-.6 2.2c-.3.7-.8 1.2-1.5 1.5-.6.4-1.3.5-2.1.5Zm0-1.2c.5 0 1 0 1.4-.3.4-.2.7-.6 1-1 .3-.5.4-1 .4-1.7s-.1-1.2-.4-1.7a2 2 0 0 0-1-1c-.4-.3-.9-.4-1.4-.4-.5 0-1 .1-1.4.4-.4.2-.7.5-1 1-.2.5-.3 1-.3 1.7 0 .6.1 1.2.3 1.7.3.4.6.8 1 1 .4.2.9.3 1.4.3Zm15.9-7.3c.6 0 1.2.2 1.7.4.5.3.9.7 1.2 1.2.3.5.4 1.2.4 2V68h-1.3v-4.6c0-.9-.2-1.5-.7-2-.4-.4-.9-.6-1.6-.6-.7 0-1.3.2-1.7.7a3 3 0 0 0-.6 2V68h-1.4v-4.6a3 3 0 0 0-.6-2c-.4-.4-1-.6-1.6-.6-.7 0-1.3.2-1.7.7a3 3 0 0 0-.6 2V68h-1.4v-8.2h1.4V61a2 2 0 0 1 1-1 3 3 0 0 1 1.6-.4c.6 0 1.3.2 1.8.5s1 .8 1.2 1.4c.2-.6.6-1 1.1-1.4.5-.3 1.1-.5 1.8-.5Zm15.4 0c.7 0 1.2.2 1.7.4.5.3 1 .7 1.2 1.2.3.5.5 1.2.5 2V68H259v-4.6a3 3 0 0 0-.6-2c-.4-.4-1-.6-1.6-.6-.8 0-1.3.2-1.7.7-.5.5-.7 1.1-.7 2V68h-1.3v-4.6a3 3 0 0 0-.6-2c-.4-.4-1-.6-1.7-.6s-1.2.2-1.7.7a3 3 0 0 0-.6 2V68h-1.4v-8.2h1.4V61c.3-.5.6-.8 1-1a3.5 3.5 0 0 1 3.4.1c.6.3 1 .8 1.2 1.4a3.2 3.2 0 0 1 2.9-1.9Zm12.9.2V68h-1.4v-1.2c-.2.4-.6.7-1 1a4.1 4.1 0 0 1-3.3-.1 3 3 0 0 1-1.2-1.2 4 4 0 0 1-.5-2v-4.7h1.4v4.6c0 .8.2 1.4.6 1.9.4.4 1 .6 1.7.6s1.3-.2 1.7-.6a3 3 0 0 0 .6-2v-4.5h1.4Zm6.3-.2c1 0 1.8.3 2.4 1 .6.5 1 1.4 1 2.6V68h-1.4v-4.6a3 3 0 0 0-.6-2c-.4-.4-1-.6-1.7-.6s-1.3.2-1.7.7c-.4.4-.6 1-.6 2V68h-1.4v-8.2h1.4V61a2 2 0 0 1 1-1 3 3 0 0 1 1.6-.4Zm6.3-1.2c-.3 0-.5 0-.7-.2a.9.9 0 0 1-.2-.7c0-.2 0-.5.2-.6.2-.2.4-.3.7-.3.2 0 .5 0 .6.3.2.1.3.4.3.6 0 .3-.1.5-.3.7-.1.2-.4.2-.6.2Zm.7 1.4V68h-1.4v-8.2h1.4Zm4 1.1v4.9c0 .4 0 .6.2.8.2.2.5.2.9.2h1V68h-1.2a3 3 0 0 1-1.8-.5 3 3 0 0 1-.5-1.8V61h-1v-1.1h1v-2h1.3v2h2.2V61h-2.2Zm10.8-1.1-5 12h-1.3l1.6-3.9-3.3-8.1h1.5l2.6 6.6 2.5-6.6h1.4Z"/>
</svg>