<svg xmlns="http://www.w3.org/2000/svg" fill="none" viewBox="0 0 78 62">
  <path fill="#3EB5AF" d="M11.5 5.3C5.5-.7 1 2.8 1 5.3l.1 8.5c4.9 9 15.9 9.5 21.9 2L11.5 5.3Z"/>
  <path fill="#F8B133" d="M45.5 1.8c-7.8 1-12.8 4.8-22.5 14l16 15c16.5-15 31-15.5 38 3v-11c0-6-9-19-22-21a29 29 0 0 0-9.5 0Z"/>
  <path fill="#2C92D0" d="m39 30.8-16-15c-6 7.5-17 7-21.9-2l.3 15.8C9.5 44.8 23 46.8 39 30.8Z"/>
  <path fill="#E84E1C" d="m39 30.8 16 15c7.5-6 14.5-9 22 2v-14c-7-18.5-21.5-18-38-3Z"/>
  <path fill="#282E6A" d="M34 59.8c8.5-1.9 12.3-5.7 21-14l-16-15c-16 16-29.5 14-37.6-1.2l.1 9.7c0 8 13.1 19.1 20 20.5 5 1 8 1 12.5 0Z"/>
  <path fill="#BC1722" d="M67.5 57.3c4 3.5 9 3.5 9.5 0v-9.5c-7.5-11-14.5-8-22-2l12.5 11.5Z"/>
  <path stroke="#fff" stroke-width="2" d="M23 15.8 11.5 5.3C5.5-.7 1 2.8 1 5.3l.1 8.5m21.9 2c9.7-9.2 14.7-13 22.5-14 4.2-.5 6-.5 9.5 0 13 2 22 15 22 21v11m-54-18 16 15m-16-15c-6 7.5-17 7-21.9-2m53.9 32 12.5 11.5c4 3.5 9 3.5 9.5 0v-9.5m-22-2c-8.7 8.3-12.5 12.1-21 14-4.5 1-7.5 1-12.5 0-6.9-1.4-20-12.5-20-20.5l-.1-9.7M55 45.8l-16-15m16 15c7.5-6 14.5-9 22 2m-38-17c16.5-15 31-15.5 38 3m-38-3c-16 16-29.5 14-37.6-1.2M77 33.8v14m-75.9-34 .3 15.8"/>
</svg>